<svg width="16" height="16" viewBox="0 0 16 16" fill="none" xmlns="http://www.w3.org/2000/svg">
<path d="M3.5112 8.50308C3.5112 8.50604 3.5112 8.50866 3.5112 8.51127C3.79173 9.00599 3.93856 9.56525 3.93723 10.134V10.762C5.135 10.2936 6.53593 10.0465 8.00014 10.0465C9.94134 10.0465 11.3668 10.4696 12.1174 10.7602L12.1226 10.1336C12.1226 9.45673 12.2822 8.85135 12.5616 8.36054L13.1942 4.19309C13.3575 3.12408 13.0751 2.10157 12.3979 1.31348C11.6797 0.479267 10.5921 0 9.41408 0H6.64644C5.46615 0 4.37666 0.479267 3.66113 1.31459C2.9847 2.10307 2.7019 3.12558 2.86526 4.19386L3.5112 8.50308Z" fill="white"/>
<path d="M14.7185 7.81396C13.5029 7.81396 12.867 8.98121 12.867 10.1336V10.8242C12.867 11.0813 12.7465 11.3224 12.5515 11.4523C12.383 11.5656 12.1688 11.5861 11.9818 11.507C11.3306 11.2394 9.94869 10.7907 8.00044 10.7907C6.57422 10.7907 5.21794 11.0385 4.07822 11.507C3.89124 11.5864 3.67678 11.566 3.50818 11.4526C3.31357 11.3224 3.19266 11.0805 3.19266 10.8246V10.1336C3.19266 8.83128 2.29964 7.81396 1.15807 7.81396C0.529605 7.81396 0.186523 8.55814 0.186523 8.93767C0.186523 9.39908 0.510628 9.91703 0.909139 10.0912C0.949709 10.109 0.99436 10.1284 1.04198 10.1455C1.40365 10.2899 2.07638 10.5581 2.07638 11.3291V12.8249C2.07638 13.3831 2.19656 14.611 3.20086 14.8421C3.19734 14.8555 3.19458 14.8692 3.19266 14.883V15.6271C3.19266 15.8326 3.35927 15.9992 3.56477 15.9992H3.93687C4.14237 15.9992 4.30897 15.8326 4.30897 15.6271V14.8837H11.7508V15.6279C11.7508 15.8334 11.9174 16 12.1229 16H12.495C12.7005 16 12.8671 15.8334 12.8671 15.6279V14.8837C12.8671 14.8733 12.8619 14.8644 12.8612 14.8543C13.7776 14.6795 13.9834 13.6796 13.9834 12.8261V11.3302C13.9834 10.5585 14.6532 10.2903 15.0137 10.1459C15.0602 10.1273 15.1042 10.1086 15.1443 10.0919C15.5205 9.92631 15.8141 9.41879 15.8141 8.93841C15.8144 8.55294 15.3515 7.81396 14.7185 7.81396Z" fill="white"/>
</svg>
